<svg xmlns="http://www.w3.org/2000/svg" viewBox="0 0 40.78 38.94"><defs><style>.cls-1{fill:#fff;}</style></defs><title>Recurso 18</title><g id="Capa_2" data-name="Capa 2"><g id="Capa_1-2" data-name="Capa 1"><path class="cls-1" d="M4.64,12.65A16.9,16.9,0,0,1,11,5.51,17.58,17.58,0,0,1,20.34,3a17.32,17.32,0,0,1,9.29,2.52A17.34,17.34,0,0,1,36,12.71a23.65,23.65,0,0,1,2.32,10.74V35.17a3.77,3.77,0,0,1-3.77,3.77H6.15a3.77,3.77,0,0,1-3.78-3.77V23.45A24.32,24.32,0,0,1,4.64,12.65Zm22.49,4.14a8.55,8.55,0,0,0-6.79-2.72,8.68,8.68,0,0,0-6.86,2.72,10.84,10.84,0,0,0-2.43,7.49h0a3.78,3.78,0,0,0,3.78,3.78H25.76a3.77,3.77,0,0,0,3.77-3.78h0A10.92,10.92,0,0,0,27.13,16.79Z"/><circle class="cls-1" cx="6.55" cy="12.03" r="4.5"/><circle class="cls-1" cx="4.5" cy="18.26" r="4.5"/><circle class="cls-1" cx="16.99" cy="4.71" r="4.5"/><circle class="cls-1" cx="11.05" cy="7.9" r="4.5"/><circle class="cls-1" cx="34.22" cy="11.82" r="4.5"/><circle class="cls-1" cx="36.28" cy="18.04" r="4.5"/><circle class="cls-1" cx="23.78" cy="4.5" r="4.5"/><circle class="cls-1" cx="29.73" cy="7.68" r="4.5"/><circle class="cls-1" cx="15.55" cy="21.06" r="2.26"/><circle class="cls-1" cx="24.19" cy="21.06" r="2.26"/></g></g></svg>